# xmcd
#
# Track frame offsets:
#	150
#	13365
#	25565
#	39492
#	50336
#	61235
#	74006
#	89304
#	107822
#	120094
#	133939
#	153933
#	161463
#	175772
#	196239
#	208929
#	219512
#	235336
#	258617
#	260856
#
# Disc length: 3675 seconds
#
# Revision: 0
# Processed by: cddbd v1.5.2PL0 Copyright (c) Steve Scherf et al.
# Submitted via: dBpowerAMP V4.0
#
DISCID=200e5914
DTITLE=Chocolate Sexy - Bloody Mary Sessions
DYEAR=2007
DGENRE=R&B
TTITLE0=Al salir de casa
TTITLE1=La barra de un bar
TTITLE2=Mosquita Boogie
TTITLE3=Atrapado
TTITLE4=Lo que veo
TTITLE5=Pajarillos
TTITLE6=Salgamos a la calle
TTITLE7=La vida tirado
TTITLE8=A cara de perro
TTITLE9=Traición
TTITLE10=Esquinazo al tiempo
TTITLE11=Agenda
TTITLE12=Sin ti
TTITLE13=Otra vez
TTITLE14=No me importa
TTITLE15=Basura
TTITLE16=Tendré que dar un palo
TTITLE17=Por la calle principal
TTITLE18=El grito del blues
TTITLE19=Yo pailo, pailo
EXTD=
EXTT0=
EXTT1=
EXTT2=
EXTT3=
EXTT4=
EXTT5=
EXTT6=
EXTT7=
EXTT8=
EXTT9=
EXTT10=
EXTT11=
EXTT12=
EXTT13=
EXTT14=
EXTT15=
EXTT16=
EXTT17=
EXTT18=
EXTT19=
PLAYORDER=
